# xmcd
# 
# Track frame offsets:
#     150
#     18040
#     42360
#     69462
#     82992
#     95810
#     117517
#     134467
#     150925
#     162530
#     177427
#     191365
#     209490
#     233172
#     253015
#     273555
#     285560
#     300675
#     320295
#     343235
# 
# Disc length: 4736
# 
# Revision: 2
# Processed by: cddbd v1.5.2PL0 Copyright (c) Steve Scherf et al.
# Submitted via: fre:ac v1.0.31
# 
DISCID=20127e14
DTITLE=Marvin Gaye - 20 Super Sucessos  Internacional
DYEAR=0
DGENRE=
TTITLE0=Sexula Healing
TTITLE1=Snactified lady
TTITLE2=Rockin' after midnight
TTITLE3=The shadow of your smile
TTITLE4=Symphony
TTITLE5=Turn on some music
TTITLE6=Dream of a lifetime
TTITLE7=Stranger in my life
TTITLE8=Happy go lucky
TTITLE9=Fly me to the moon
TTITLE10=Maria
TTITLE11=Just like
TTITLE12=Midnight lady
TTITLE13=Ain't it funny
TTITLE14=Third world girl
TTITLE15=MOre
TTITLE16=It's madness
TTITLE17=Joy
TTITLE18=My love is waiting
TTITLE19=I live for you
EXTD=
EXTT0=
EXTT1=
EXTT2=
EXTT3=
EXTT4=
EXTT5=
EXTT6=
EXTT7=
EXTT8=
EXTT9=
EXTT10=
EXTT11=
EXTT12=
EXTT13=
EXTT14=
EXTT15=
EXTT16=
EXTT17=
EXTT18=
EXTT19=
PLAYORDER=
